<?xml version="1.0" encoding="UTF-8" standalone="no"?>
<svg
   width="20"
   height="20"
   fill="currentColor"
   class="bi bi-droplet"
   viewBox="0 0 20 20"
   version="1.1"
   id="svg2"
   sodipodi:docname="droplet-logo.svg"
   inkscape:version="1.3.2 (091e20e, 2023-11-25, custom)"
   inkscape:export-filename="droplet-logo.png"
   inkscape:export-xdpi="96"
   inkscape:export-ydpi="96"
   xmlns:inkscape="http://www.inkscape.org/namespaces/inkscape"
   xmlns:sodipodi="http://sodipodi.sourceforge.net/DTD/sodipodi-0.dtd"
   xmlns="http://www.w3.org/2000/svg"
   xmlns:svg="http://www.w3.org/2000/svg">
  <defs
     id="defs2" />
  <sodipodi:namedview
     id="namedview2"
     pagecolor="#ffffff"
     bordercolor="#000000"
     borderopacity="0.25"
     inkscape:showpageshadow="2"
     inkscape:pageopacity="0.0"
     inkscape:pagecheckerboard="0"
     inkscape:deskcolor="#d1d1d1"
     inkscape:zoom="1.5878906"
     inkscape:cx="80.295203"
     inkscape:cy="164.68389"
     inkscape:current-layer="svg2" />
  <g
     id="g2"
     style="fill:#007373;fill-opacity:1"
     transform="translate(2,2)">
    <path
       fill-rule="evenodd"
       d="M 7.21,0.8 C 7.69,0.295 8,0 8,0 q 0.164,0.544 0.371,1.038 c 0.812,1.946 2.073,3.35 3.197,4.6 C 12.878,7.096 14,8.345 14,10 A 6,6 0 0 1 2,10 C 2,6.668 5.58,2.517 7.21,0.8 M 7.623,1.821 A 31,31 0 0 0 5.794,3.99 C 5.068,4.94 4.358,5.998 3.834,7.06 3.304,8.133 3,9.138 3,10 a 5,5 0 0 0 10,0 C 13,8.799 12.204,7.843 10.819,6.3 L 10.789,6.268 C 9.75,5.11 8.5,3.72 7.623,1.82 Z"
       id="path1"
       style="fill:#007373;fill-opacity:1" />
    <path
       fill-rule="evenodd"
       d="M 4.553,7.776 C 5.373,6.135 6.27,5.023 6.646,4.646 l 0.708,0.708 c -0.29,0.29 -1.128,1.311 -1.907,2.87 z"
       id="path2"
       style="fill:#007373;fill-opacity:1" />
  </g>
</svg>
